<svg aria-hidden="true" style="position: absolute; width: 0; height: 0; overflow: hidden;" version="1.1" xmlns="http://www.w3.org/2000/svg" xmlns:xlink="http://www.w3.org/1999/xlink">
<defs>
<symbol id="icon-flower-logo" viewBox="0 0 36 32">
<path fill="#353c3a" style="fill: var(--color1, #353c3a)" d="M7.211 3.076c0.554-0.837 1.169-1.547 2.012-2.109 1.169-0.779 2.561-1.171 3.956-0.862 1.124 0.249 2.039 1.005 2.655 1.949 0.634 1.335 1.189 2.664 1.601 4.086 0.084 0.289 0.191 0.864 0.309 1.502 0.21 1.13 0.456 2.459 0.678 2.743 0.201 1.957-1.249 4.827-2.466 6.323-0.291 0.362-0.611 0.702-0.956 1.014 2.124 3.475 3.327 7.537 3.712 11.586 0.939-3.145 1.906-6.281 2.903-9.408-1.584-2.444-1.448-6.418-0.853-9.169 0.592-2.74 1.916-5.719 4.375-7.261 0.273-0.171 0.557-0.325 0.844-0.473 1.736 2.165 2.388 4.571 2.087 7.322-0.402 3.695-2.476 7.15-5.373 9.445l-0.12 0.095c-0.23 0.818-0.495 1.634-0.76 2.45-0.363 1.118-0.726 2.237-1.001 3.365 0.016-0.006 0.032-0.012 0.048-0.019 0.030-0.011 0.059-0.023 0.089-0.036 0.328-0.147 0.916-1.059 1.405-1.818 0.251-0.39 0.477-0.739 0.628-0.925 2.55-3.134 6.015-5.006 10.119-4.917 0.772 0.016 1.697 0.046 2.431 0.262 0.354 0.104 0.414 0.16 0.607 0.467-0.117 2.172-2.978 5.605-4.619 7.079-3.383 3.037-7.587 4.784-11.837 6.235-0.173-0.038-0.269-0.060-0.464-0.103l-2.253-0.5-0.704-0.213 0.048-0.125c-0.088-0.342-0.593-0.438-0.947-0.505l-0.005-0.001c-0.032-0.006-0.063-0.012-0.093-0.018-0.415-0.083-0.835-0.164-1.257-0.245l-0.007-0.001c-4.626-0.894-9.598-1.854-12.655-5.759-0.522-0.667-1.441-1.988-1.334-2.826 0.708-0.604 2.797-0.815 3.704-0.866 4.587-0.258 8.918 2.183 11.769 5.634 0.284 0.343 0.542 0.766 0.801 1.191 0.366 0.599 0.734 1.203 1.181 1.595l0.177-0.329c-0.497-3.887-1.401-7.368-3.544-10.683-1.503 0.444-2.897 0.572-4.459 0.287-0.998-0.183-2.607-0.685-3.21-1.544-0.175-0.276-1.185-0.774-2.173-1.262-0.766-0.378-1.518-0.749-1.856-1.004-1.428-1.078-2.135-2.51-2.392-4.258l-0.006-0.147c-0.065-1.947 0.407-3.686 1.79-5.119 1.451-1.503 3.373-2.086 5.415-2.121z"></path>
<path fill="#eae9e8" style="fill: var(--color2, #eae9e8)" d="M7.211 3.076c0.554-0.837 1.169-1.547 2.012-2.109 1.169-0.779 2.561-1.171 3.956-0.862 1.125 0.249 2.039 1.005 2.655 1.949-1.927 0.556-2.584 1.295-3.701 2.948-0.294 0.805-0.545 1.648-0.617 2.506 1.355 1.192 2.226 2.533 2.347 4.379 0.014 0.221 0.031 0.262-0.090 0.44l-0.493-0.145c-0.439 0.32-0.549 0.865-0.631 1.376-0.146 0.912-0.167 1.896-0.149 2.82-1.131-0.33-2.127-0.445-3.304-0.39-0.969 0.239-1.883 0.518-2.765 0.999-0.311-0.489-3.255-1.682-4.028-2.266-1.428-1.078-2.135-2.51-2.392-4.258l-0.006-0.147c-0.065-1.947 0.407-3.686 1.79-5.119 1.451-1.503 3.372-2.086 5.415-2.121z"></path>
<path fill="#db8778" style="fill: var(--color3, #db8778)" d="M7.211 3.076c0.554-0.837 1.169-1.547 2.012-2.109 1.169-0.779 2.561-1.171 3.956-0.862 1.125 0.249 2.039 1.005 2.655 1.949-1.927 0.556-2.584 1.295-3.701 2.948-0.294 0.805-0.545 1.648-0.617 2.506l-1.353-0.545c-0.54 0.014-1.603-0.094-2.066 0.139l-0.596 0.289c-0.23 0.209-0.498 0.523-0.763 0.675l-0.5 0.861-0.346 0.021c-1.608-0.029-3.127 0.146-4.599 0.839-0.416 0.196-0.853 0.545-1.282 0.675l-0.006-0.147c-0.065-1.947 0.407-3.686 1.79-5.119 1.451-1.503 3.372-2.086 5.415-2.121z"></path>
<path fill="#353c3a" style="fill: var(--color1, #353c3a)" d="M10.164 6.964c0.246-0.658 0.454-1.468 0.963-1.97 0.459-0.185 0.551-0.125 1.007 0.009-0.294 0.805-0.545 1.648-0.617 2.506l-1.353-0.545z"></path>
<path fill="#353c3a" style="fill: var(--color1, #353c3a)" d="M7.502 7.393c-0.486-0.333-1.045-0.674-1.439-1.118-0.255-0.288-0.389-0.602-0.371-0.986l0.256-0.126c1.077 0.236 1.537 1.114 2.15 1.941l-0.596 0.289z"></path>
<path fill="#353c3a" style="fill: var(--color1, #353c3a)" d="M5.893 8.949c-0.203-0.025-0.431-0.043-0.627-0.101-0.328-0.097-0.381-0.232-0.506-0.514 0.14-0.196 0.174-0.25 0.396-0.348 0.538-0.236 1.056-0.116 1.583 0.080l-0.5 0.861-0.346 0.021z"></path>
<path fill="#353c3a" style="fill: var(--color1, #353c3a)" d="M8.576 3.949c0.182 0.078 0.36 0.172 0.475 0.34 0.461 0.675 0.384 2.022 0.3 2.804l-0.64-0.19c-0.088-0.096-0.156-0.172-0.21-0.292-0.377-0.835-0.221-1.832 0.075-2.663z"></path>
<path fill="#ebb19f" style="fill: var(--color4, #ebb19f)" d="M5.894 8.949l0.346-0.021c-0.422 1.591-0.649 3.201 0.234 4.696 0.63 1.067 1.652 1.786 2.724 2.365-0.969 0.239-1.883 0.518-2.765 0.999-0.311-0.489-3.255-1.682-4.028-2.266-1.428-1.078-2.135-2.51-2.392-4.258 0.429-0.13 0.866-0.479 1.282-0.675 1.472-0.693 2.991-0.868 4.599-0.839z"></path>
<path fill="#97a898" style="fill: var(--color5, #97a898)" d="M20.814 25.672c0.045-0.018 0.092-0.034 0.137-0.055 0.497-0.222 1.587-2.196 2.033-2.743 2.55-3.134 6.014-5.006 10.119-4.917 0.772 0.017 1.697 0.046 2.431 0.262 0.354 0.104 0.414 0.16 0.607 0.467-0.117 2.172-2.978 5.605-4.619 7.079-3.383 3.037-7.587 4.784-11.837 6.235 2.208-2.789 4.791-5.526 7.554-7.768 0.961-0.78 5.020-3.259 5.315-3.768-0.131-0.085-0.149-0.139-0.311-0.116-3.67 0.533-10.74 8.055-12.936 10.9 0.278-1.937 0.755-3.765 1.508-5.576z"></path>
<path fill="#97a898" style="fill: var(--color5, #97a898)" d="M16.264 31.183l0.048-0.125c-0.096-0.375-0.694-0.454-1.045-0.524-4.961-0.989-10.581-1.742-13.919-6.006-0.522-0.667-1.441-1.988-1.334-2.826 0.708-0.604 2.797-0.815 3.704-0.866 4.587-0.258 8.918 2.183 11.769 5.634 0.683 0.826 1.218 2.115 1.982 2.786l0.177-0.329c0.078 0.463 0.11 0.827 0.042 1.297-0.551-0.176-1.422-1.305-1.94-1.714-2.924-2.312-8.052-5.457-11.921-5.346l-0.1 0.136c0.964 0.749 2.592 1.046 3.742 1.444 3.468 1.2 7.335 3.476 9.545 6.469l-0.119 0.133c-0.192-0.044-0.463-0.069-0.631-0.163z"></path>
<path fill="#97a898" style="fill: var(--color5, #97a898)" d="M25.98 2.996c1.736 2.165 2.388 4.571 2.087 7.322-0.402 3.695-2.476 7.15-5.373 9.445l-0.12 0.095c0.67-3.297 1.167-6.772 2.149-9.983 0.215-0.698 0.692-1.96 0.338-2.625l-0.248 0.099c-1.512 2.388-2.278 9.42-3.199 12.551-1.584-2.444-1.448-6.418-0.853-9.169 0.592-2.74 1.916-5.719 4.375-7.261 0.273-0.171 0.557-0.325 0.844-0.473z"></path>
<path fill="#ebb19f" style="fill: var(--color4, #ebb19f)" d="M12.133 5.003c1.117-1.653 1.774-2.392 3.701-2.948 0.634 1.335 1.189 2.664 1.601 4.086 0.233 0.802 0.64 3.8 0.987 4.245-1.231 0.248-2.086 0.909-2.771 1.949-0.381 0.579-0.68 1.24-0.955 1.876-0.305-0.563-0.799-1.258-0.922-1.881 0.121-0.179 0.104-0.22 0.090-0.44-0.12-1.846-0.991-3.187-2.347-4.379 0.071-0.858 0.323-1.701 0.617-2.506z"></path>
</symbol>
<symbol id="icon-Instagram" viewBox="0 0 32 32">
<path d="M15.998 6.161c3.206 0 3.585 0.014 4.846 0.071 1.172 0.052 1.804 0.248 2.226 0.412 0.558 0.216 0.961 0.478 1.378 0.895 0.422 0.422 0.679 0.82 0.9 1.378 0.164 0.422 0.361 1.059 0.412 2.226 0.056 1.266 0.071 1.645 0.071 4.847s-0.014 3.585-0.071 4.847c-0.052 1.172-0.248 1.804-0.412 2.227-0.216 0.558-0.478 0.961-0.895 1.377-0.422 0.422-0.82 0.679-1.378 0.9-0.422 0.164-1.060 0.361-2.226 0.412-1.266 0.056-1.645 0.071-4.847 0.071s-3.585-0.014-4.847-0.071c-1.172-0.052-1.804-0.248-2.226-0.412-0.558-0.216-0.961-0.478-1.378-0.895-0.422-0.422-0.679-0.82-0.9-1.378-0.164-0.422-0.361-1.060-0.412-2.226-0.056-1.266-0.071-1.645-0.071-4.847s0.014-3.585 0.071-4.847c0.052-1.172 0.248-1.804 0.412-2.226 0.216-0.558 0.478-0.961 0.895-1.378 0.422-0.422 0.82-0.679 1.378-0.9 0.422-0.164 1.059-0.361 2.226-0.412 1.261-0.056 1.641-0.071 4.847-0.071h0.001zM15.998 4.001c-3.258 0-3.665 0.014-4.945 0.071-1.275 0.056-2.151 0.262-2.91 0.558-0.792 0.309-1.462 0.717-2.127 1.387-0.67 0.666-1.078 1.336-1.387 2.123-0.295 0.764-0.502 1.636-0.558 2.91-0.056 1.285-0.071 1.692-0.071 4.949s0.014 3.665 0.071 4.945c0.056 1.275 0.262 2.151 0.558 2.91 0.31 0.792 0.717 1.462 1.387 2.127 0.665 0.665 1.336 1.078 2.123 1.383 0.764 0.295 1.636 0.502 2.91 0.558 1.279 0.056 1.687 0.071 4.945 0.071s3.666-0.014 4.945-0.071c1.275-0.056 2.151-0.262 2.91-0.558 0.787-0.305 1.458-0.717 2.123-1.383s1.078-1.336 1.383-2.123c0.295-0.764 0.502-1.635 0.558-2.91 0.056-1.279 0.071-1.687 0.071-4.945s-0.014-3.665-0.071-4.945c-0.056-1.275-0.262-2.151-0.558-2.91-0.295-0.797-0.703-1.467-1.373-2.133-0.665-0.665-1.336-1.078-2.123-1.383-0.764-0.295-1.635-0.502-2.91-0.558-1.284-0.061-1.692-0.075-4.949-0.075l-0.001 0.001z"></path>
<path d="M15.998 9.836c-3.402 0-6.163 2.76-6.163 6.163s2.76 6.163 6.163 6.163c3.403 0 6.163-2.76 6.163-6.163s-2.76-6.163-6.163-6.163zM15.998 19.997c-2.208 0-3.998-1.79-3.998-3.998s1.79-3.998 3.998-3.998c2.208 0 3.998 1.79 3.998 3.998s-1.79 3.998-3.998 3.998z"></path>
<path d="M23.843 9.592c0 0.795-0.644 1.439-1.439 1.439s-1.439-0.644-1.439-1.439 0.644-1.439 1.439-1.439c0.795 0 1.439 0.644 1.439 1.439z"></path>
</symbol>
<symbol id="icon-facebook" viewBox="0 0 32 32">
<path d="M32 16.098c0-8.891-7.163-16.098-16-16.098s-16 7.207-16 16.098c0 8.035 5.851 14.695 13.5 15.902v-11.249h-4.063v-4.653h4.063v-3.547c0-4.035 2.389-6.263 6.043-6.263 1.751 0 3.582 0.314 3.582 0.314v3.962h-2.017c-1.988 0-2.608 1.241-2.608 2.514v3.020h4.437l-0.709 4.653h-3.728v11.249c7.649-1.208 13.5-7.867 13.5-15.902z"></path>
</symbol>
<symbol id="icon-cube" viewBox="0 0 29 32">
<path d="M28.368 8.192c0.282 0.486 0.431 1.038 0.432 1.6v12.4c-0.005 0.562-0.153 1.112-0.432 1.6l-0.24 0.4c-0.274 0.49-0.678 0.894-1.168 1.168l-10.736 6.208c-0.486 0.282-1.038 0.431-1.6 0.432h-0.448c-0.563 0.005-1.116-0.144-1.6-0.432l-10.752-6.192c-0.479-0.288-0.88-0.689-1.168-1.168l-0.224-0.4c-0.282-0.486-0.431-1.038-0.432-1.6v-12.4c0.001-0.562 0.15-1.114 0.432-1.6l0.224-0.4c0.28-0.485 0.683-0.888 1.168-1.168l10.736-6.208c0.486-0.282 1.038-0.431 1.6-0.432h0.464c0.562 0.001 1.114 0.15 1.6 0.432l10.736 6.192c0.488 0.282 0.895 0.684 1.184 1.168l0.224 0.4zM14.16 3.2l-9.36 5.408 9.6 5.536 9.6-5.536-9.376-5.408h-0.464zM16 28l9.36-5.408 0.24-0.4v-10.816l-9.6 5.552v11.072z"></path>
</symbol>
<symbol id="icon-arrow-left" viewBox="0 0 32 32">
<path d="M18.562 27.429l-9.813-9.813h21.911v-4.571h-21.911l9.813-9.813-3.232-3.232-15.33 15.33 15.33 15.33 3.232-3.232z"></path>
</symbol>
<symbol id="icon-arrow-right" viewBox="0 0 32 32">
<path d="M12.098 27.429l3.232 3.232 15.33-15.33-15.33-15.33-3.232 3.232 9.813 9.813h-21.911v4.571h21.911l-9.813 9.813z"></path>
</symbol>
<symbol id="icon-arrow-up" viewBox="0 0 32 32">
<path d="M27.429 18.562l3.232-3.232-15.33-15.33-15.33 15.33 3.232 3.232 9.813-9.813v21.911h4.571v-21.911l9.813 9.813z"></path>
</symbol>
<symbol id="icon-phone" viewBox="0 0 32 32">
<path d="M24.778 17.336c-0.156-0.156-0.342-0.281-0.546-0.365s-0.423-0.128-0.645-0.128c-0.221 0-0.44 0.044-0.645 0.128s-0.39 0.209-0.546 0.365l-2.685 2.685c-1.245-0.371-3.567-1.213-5.039-2.685s-2.314-3.795-2.685-5.039l2.685-2.685c0.157-0.156 0.281-0.342 0.365-0.546s0.128-0.423 0.128-0.645c0-0.221-0.044-0.44-0.128-0.645s-0.209-0.39-0.365-0.546l-6.737-6.737c-0.156-0.157-0.342-0.281-0.546-0.365s-0.423-0.128-0.645-0.128c-0.221 0-0.44 0.044-0.645 0.128s-0.39 0.209-0.546 0.365l-4.568 4.568c-0.64 0.64-1 1.519-0.987 2.417 0.039 2.398 0.674 10.728 7.239 17.293s14.895 7.198 17.295 7.239h0.047c0.889 0 1.73-0.35 2.366-0.987l4.568-4.568c0.157-0.156 0.281-0.342 0.365-0.546s0.128-0.423 0.128-0.645c0-0.221-0.044-0.44-0.128-0.645s-0.209-0.39-0.365-0.546l-6.737-6.739zM24.565 28.64c-2.102-0.035-9.293-0.6-14.944-6.252-5.669-5.669-6.218-12.886-6.252-14.946l3.377-3.377 4.355 4.355-2.178 2.178c-0.198 0.198-0.344 0.442-0.424 0.71s-0.092 0.552-0.035 0.826c0.040 0.194 1.029 4.787 3.825 7.582s7.389 3.784 7.582 3.825c0.274 0.059 0.558 0.048 0.826-0.032s0.512-0.226 0.71-0.425l2.179-2.178 4.355 4.355-3.379 3.377z"></path>
</symbol>
<symbol id="icon-close" viewBox="0 0 32 32">
<path d="M26.397 0l-11.315 11.312-11.312-11.312-3.771 3.771 11.312 11.312-11.312 11.312 3.771 3.771 11.312-11.312 11.315 11.312 3.771-3.771-11.312-11.312 11.312-11.312-3.771-3.771z"></path>
</symbol>
<symbol id="icon-menu" viewBox="0 0 43 32">
<path d="M0 0h42.667v5.333h-42.667v-5.333zM0 13.333h42.667v5.333h-42.667v-5.333zM0 26.667h42.667v5.333h-42.667v-5.333z"></path>
</symbol>
<symbol id="icon-map" viewBox="0 0 26 32">
<path d="M12.8 19.2c3.53 0 6.4-2.87 6.4-6.4s-2.87-6.4-6.4-6.4c-3.53 0-6.4 2.87-6.4 6.4s2.87 6.4 6.4 6.4zM12.8 9.6c1.765 0 3.2 1.435 3.2 3.2s-1.435 3.2-3.2 3.2c-1.765 0-3.2-1.435-3.2-3.2s1.435-3.2 3.2-3.2z"></path>
<path d="M11.872 31.702c0.271 0.193 0.595 0.297 0.928 0.297s0.657-0.104 0.928-0.297c0.486-0.344 11.918-8.598 11.872-18.902 0-7.058-5.742-12.8-12.8-12.8s-12.8 5.742-12.8 12.792c-0.046 10.312 11.386 18.566 11.872 18.91zM12.8 3.2c5.294 0 9.6 4.306 9.6 9.608 0.034 7.101-7.021 13.477-9.6 15.568-2.578-2.093-9.634-8.47-9.6-15.576 0-5.294 4.306-9.6 9.6-9.6z"></path>
</symbol>
<symbol id="icon-X" viewBox="0 0 36 32">
<path d="M28.352 0h5.52l-12.060 13.555 14.188 18.445h-11.109l-8.701-11.187-9.956 11.187h-5.524l12.899-14.498-13.61-17.502h11.391l7.865 10.225 9.096-10.225zM26.415 28.751h3.059l-19.745-25.672h-3.282l19.968 25.672z"></path>
</symbol>
</defs>
</svg>
